<?xml version="1.0" encoding="utf-8"?>
<!-- Generator: Adobe Illustrator 16.0.0, SVG Export Plug-In . SVG Version: 6.00 Build 0)  -->
<!DOCTYPE svg PUBLIC "-//W3C//DTD SVG 1.1//EN" "http://www.w3.org/Graphics/SVG/1.1/DTD/svg11.dtd">
<svg version="1.1" id="Layer_1" xmlns="http://www.w3.org/2000/svg" xmlns:xlink="http://www.w3.org/1999/xlink" x="0px" y="0px"
	 width="497px" height="145px" viewBox="-1 -0.466 497 145" enable-background="new -1 -0.466 497 145" xml:space="preserve">
<path fill="#00427A" d="M119.671,80.242c-0.806,2.398-2.414,6.639-3.687,8.852c-1.743,0.43-7.038,1.6-11.53,1.6
	c-16.689,0-23.859-10.511-23.859-20.407c0-12.788,10.319-21.149,25.268-21.149c5.362,0,9.854,1.29,11.527,1.538
	c0.539,3.382,0.804,5.84,1.208,8.422l-0.871,0.245c-1.674-6.455-6.435-8.915-13.406-8.915c-11.596,0-17.426,9.1-17.426,18.69
	c0,11.68,6.704,20.284,17.762,20.284c7.306,0,11.329-4.116,14.21-9.405L119.671,80.242z"/>
<path fill="#00427A" d="M150.044,76.246c0,9.528-7.492,14.323-14.105,14.323c-8.907,0-14.24-6.574-14.24-13.338
	c0-9.837,8.37-14.386,14.308-14.386C144.24,62.846,150.044,68.87,150.044,76.246z M127.505,75.202
	c0,8.112,3.441,14.138,9.176,14.138c4.253,0,7.559-2.949,7.559-11.926c0-7.007-2.969-13.339-9.042-13.339
	C130.675,64.075,127.505,68.379,127.505,75.202z"/>
<path fill="#00427A" d="M150.193,89.834v-0.74c3.983-0.305,4.45-0.799,4.45-5.039V53.132c0-4.302-1.292-4.548-5.342-4.917v-0.554
	c2.922-0.432,8.129-1.354,10.123-2.151v38.545c0,4.24,0.465,4.734,4.448,5.039v0.74H150.193z"/>
<path fill="#00427A" d="M194.347,88.42c-1.328,0.123-3.055,0.552-4.648,0.98c-1.66,0.368-3.188,0.861-4.25,1.169l-0.397-0.368v-4.61
	c-1.395,1.107-2.99,2.274-4.849,3.381c-1.925,1.105-3.451,1.599-4.977,1.599c-4.385,0-7.836-2.396-7.836-8.483V68.992
	c0-3.013-1.488-3.441-3.282-3.812l-1.526-0.369v-0.614c1.194-0.063,3.746-0.246,5.339-0.369c1.595-0.185,3.253-0.431,4.45-0.677
	c-0.133,1.414-0.201,3.442-0.201,8.546v8.544c0,5.471,2.657,7.067,5.645,7.067c2.258,0,5.178-0.98,7.238-3.072V68.992
	c0-3.013-1.623-3.441-3.813-3.812l-2.06-0.369v-0.614c1.794-0.063,4.61-0.246,6.271-0.369c1.794-0.185,3.253-0.431,4.382-0.677
	V83.93c0,2.951,0.532,3.381,2.922,3.628l1.595,0.122v0.74H194.347z"/>
<path fill="#00427A" d="M230.266,89.834v-0.74c4.051-0.305,4.646-0.674,4.646-5.47v-10.39c0-4.428-1.325-7.314-5.974-7.314
	c-2.126,0-4.448,0.982-6.974,2.888c0.201,0.677,0.268,1.416,0.268,2.769v12.54c0,4.18,0.464,4.674,4.052,4.979v0.74h-13.413v-0.74
	c4.115-0.305,4.58-0.799,4.58-4.979V73.111c0-4.549-1.459-7.253-6.041-7.253c-2.393,0-4.78,1.352-6.706,2.827v15.431
	c0,4.18,0.464,4.674,3.85,4.979v0.74h-13.479v-0.74c4.116-0.305,4.848-0.799,4.848-4.979v-13.4c0-3.875-1.356-4.243-4.81-4.92
	v-0.613c2.391-0.491,6.536-1.229,9.591-2.52v4.792c1.327-0.859,2.655-1.781,4.446-2.765c1.994-1.17,3.587-1.844,5.379-1.844
	c3.055,0,5.844,1.781,7.105,4.917c1.858-1.291,3.917-2.459,5.511-3.32c1.596-0.922,3.12-1.596,4.715-1.596
	c4.913,0,7.834,3.258,7.834,8.974v12.296c0,4.486,0.398,4.608,4.049,4.979v0.74L230.266,89.834L230.266,89.834z"/>
<path fill="#00427A" d="M256.625,63.398c0.861-0.367,1.725-0.552,2.389-0.552c6.906,0,12.615,5.593,12.615,12.723
	c0,8.729-7.436,15.001-16.003,15.001c-2.455,0-6.04-0.492-9.493-2.09V53.01c0-3.996-1.292-4.364-5.342-4.794v-0.554
	c3.319-0.31,7.865-1.354,10.123-2.151v20.163L256.625,63.398z M250.914,83.073c0,0.856,0.063,1.533,0.332,2.212
	c0.531,1.476,2.523,3.81,5.975,3.81c6.043,0,8.965-5.164,8.965-12.048c0-6.886-4.25-11.373-10.225-11.373
	c-1.993,0-3.918,0.491-5.047,1.046V83.073z"/>
<path fill="#00427A" d="M272.98,89.834v-0.74c3.918-0.369,4.449-0.799,4.449-5.039V70.591c0-3.813-1.357-4.119-4.877-4.796V65.12
	c2.655-0.431,6.735-1.169,9.657-2.398v21.333c0,4.24,0.466,4.67,4.517,5.039v0.74H272.98z M276.456,54.47
	c0-1.751,1.437-2.943,3.103-2.943c1.668,0,3.028,1.192,3.028,2.943c0,1.612-1.36,2.943-3.103,2.943
	C277.893,57.414,276.456,56.082,276.456,54.47z"/>
<path fill="#00427A" d="M307.806,90.57c-1.13,0-2.522-0.492-3.253-1.229s-1.129-1.66-1.461-2.827
	c-2.324,1.599-5.908,4.058-7.369,4.058c-4.648,0-7.636-3.688-7.636-7.008c0-2.89,1.593-4.548,4.979-5.654
	c3.65-1.166,8.231-2.705,9.961-3.935v-1.539c0-4.855-2.193-7.377-5.713-7.377c-1.193,0-2.258,0.432-2.922,1.168
	c-0.797,0.799-1.461,2.091-1.926,4.119c-0.267,0.985-0.729,1.354-1.593,1.354c-1.065,0-2.59-1.047-2.59-2.337
	c0-0.737,0.729-1.414,1.926-2.214c1.925-1.229,6.438-3.687,9.692-4.302c1.793,0,3.587,0.552,4.914,1.536
	c2.26,1.844,2.92,4.304,2.92,7.622v11.742c0,2.521,1.131,3.504,2.394,3.504c0.863,0,1.594-0.244,2.19-0.677l0.396,0.862
	L307.806,90.57z M303.027,75.202c-1.264,0.676-4.387,1.968-5.846,2.642c-2.455,1.109-3.918,2.275-3.918,4.612
	c0,3.257,2.588,4.979,4.848,4.979c1.459,0,3.584-0.8,4.916-2.151V75.202z"/>
<path fill="#00427A" d="M360.637,80.242c-0.796,2.398-2.391,6.639-3.649,8.852c-1.728,0.43-6.974,1.6-11.421,1.6
	c-16.534,0-23.639-10.511-23.639-20.407c0-12.788,10.227-21.149,25.032-21.149c5.313,0,9.762,1.29,11.421,1.538
	c0.53,3.382,0.797,5.84,1.195,8.422l-0.861,0.245c-1.663-6.455-6.378-8.915-13.282-8.915c-11.486,0-17.263,9.1-17.263,18.69
	c0,11.68,6.641,20.284,17.594,20.284c7.239,0,11.224-4.116,14.077-9.405L360.637,80.242z"/>
<path fill="#00427A" d="M390.134,76.246c0,9.528-7.372,14.323-13.877,14.323c-8.764,0-14.011-6.574-14.011-13.338
	c0-9.837,8.231-14.386,14.078-14.386C384.424,62.846,390.134,68.87,390.134,76.246z M367.958,75.202
	c0,8.112,3.385,14.138,9.03,14.138c4.182,0,7.436-2.949,7.436-11.926c0-7.007-2.923-13.339-8.896-13.339
	C371.078,64.075,367.958,68.379,367.958,75.202z"/>
<path fill="#00427A" d="M390.236,89.834v-0.74c3.984-0.305,4.448-0.799,4.448-5.039V53.132c0-4.302-1.291-4.548-5.343-4.917v-0.554
	c2.924-0.432,8.132-1.354,10.123-2.151v38.545c0,4.24,0.465,4.734,4.451,5.039v0.74H390.236z"/>
<path fill="#00427A" d="M406.143,89.834v-0.74c3.985-0.305,4.452-0.799,4.452-5.039V53.132c0-4.302-1.293-4.548-5.342-4.917v-0.554
	c2.919-0.432,8.128-1.354,10.12-2.151v38.545c0,4.24,0.465,4.734,4.448,5.039v0.74H406.143z"/>
<path fill="#00427A" d="M443.357,84.426c-3.783,4.914-8.432,6.145-10.157,6.145c-8.036,0-12.549-6.023-12.549-12.849
	c0-4.117,1.525-7.684,4.251-10.45c2.653-2.645,6.173-4.425,9.359-4.425h0.065c5.313,0,9.229,4.425,9.229,8.484
	c0,0.98-0.331,1.29-1.393,1.536c-0.995,0.183-8.831,0.737-16.865,0.981c-0.135,9.591,5.512,13.032,10.291,13.032
	c2.257,0,4.714-0.799,7.237-3.012L443.357,84.426z M425.63,72.129c3.853,0,7.57,0,11.488-0.125c0.86,0,1.262-0.369,1.262-1.045
	c0.065-3.196-1.795-6.518-5.978-6.518C429.481,64.442,426.428,67.209,425.63,72.129z"/>
<path fill="#00427A" d="M494.801,84.426c-3.784,4.914-8.431,6.145-10.157,6.145c-8.035,0-12.552-6.023-12.552-12.849
	c0-4.117,1.528-7.684,4.25-10.45c2.657-2.645,6.174-4.425,9.361-4.425h0.066c5.313,0,9.229,4.425,9.229,8.484
	c0,0.98-0.331,1.29-1.396,1.536c-0.995,0.183-8.83,0.737-16.865,0.981c-0.132,9.591,5.513,13.032,10.291,13.032
	c2.259,0,4.716-0.799,7.237-3.012L494.801,84.426z M477.071,72.129c3.852,0,7.571,0,11.487-0.125c0.863,0,1.262-0.369,1.262-1.045
	c0.065-3.196-1.793-6.518-5.977-6.518C480.923,64.442,477.869,67.209,477.071,72.129z"/>
<path fill="#00427A" d="M464.415,86.46c-2.325,0-6.285,0.606-8.275,0.606c-2.855,0-4.251-1.106-4.251-2.521
	c0-0.922,1.128-2.214,1.86-2.646c1.063,0.247,2.124,0.371,3.453,0.371c4.846,0,10.889-3.136,10.889-9.96
	c0-2.088-0.73-4.241-2.191-5.654l3.852-0.327c1.063-0.615,2.336-2.5,2.932-3.483l-0.697-0.192c-1.623,0.706-4.354,1.817-8.187,1.91
	c-1.925-1.046-4.005-1.717-6.065-1.717h-0.064c-4.847,0-11.222,3.258-11.222,10.265c0,3.994,2.722,7.132,6.107,8.424
	c-0.931,1.168-3.319,2.581-5.979,3.382c-0.063,0.613,0.135,1.657,0.666,2.455c0.799,1.418,2.929,2.841,5.452,3.455
	c2.284,0.53,3.987,0.189,5.941,0.131c3.323-0.102,5.83-0.331,7.979,0.58c1.99,0.738,3.158,2.752,3.158,5.087
	c0,4.118-3.816,7.776-11.466,7.896c-4.777,0.073-8.798-3.063-8.616-5.795c0.106-1.68,1.684-2.949,3.475-3.889
	c0.053-0.032,0.112-0.058,0.164-0.086c-0.624-0.105-0.996-0.193-1.521-0.374c-1.852,0.968-4.047,2.21-5.154,2.941
	c-0.901,0.567-1.555,1.297-1.555,2.355c0,2.956,4.813,7.366,11.848,7.128c9.339-0.317,16.994-6.825,16.746-12.762
	C473.446,88.146,468,86.46,464.415,86.46z M451.623,71.82c0-5.226,2.523-7.868,5.247-7.868c3.981,0,6.24,3.996,6.24,9.345
	c0,5.593-2.589,7.563-5.245,7.745C454.013,81.041,451.623,77.291,451.623,71.82z"/>
<path fill="#979190" d="M303.713,109.865c-1.113,0.983-2.286,1.524-3.305,1.524c-0.446,0-0.809-0.14-1.079-0.413
	c-0.554-0.56-0.625-1.571-0.616-2.119l0.001-0.044c0.007-0.147,0.015-0.365,0.056-0.679c2.307-0.608,6.064-1.915,6.097-3.974
	c0.009-0.437-0.154-0.848-0.46-1.158c-0.248-0.252-0.701-0.554-1.461-0.554c-1.008,0-2.471,0.632-3.398,1.256
	c-1.814,1.278-3.016,3.532-3.059,5.745c-0.021,1.211,0.259,2.118,0.826,2.695c0.562,0.572,1.281,0.691,1.787,0.691
	c1.629,0,3.328-0.85,5.047-2.521l0.104-0.102l-0.438-0.439L303.713,109.865z M301.068,103.648c0.211-0.131,0.496-0.195,0.849-0.195
	c0.246,0,0.476,0.096,0.644,0.269c0.203,0.208,0.312,0.51,0.303,0.855c-0.018,1.154-1.277,2.061-3.963,2.843
	C299.477,104.54,300.896,103.738,301.068,103.648z"/>
<path fill="#979190" d="M310.938,102.448c-0.861,0-1.992,0.561-2.681,1.082c-1.224,0.936-1.377,1.773-1.385,2.323
	c-0.019,1.126,0.93,1.955,1.989,2.775c1.12,0.883,1.333,1.321,1.324,1.78c-0.014,0.71-0.63,1.225-1.463,1.225
	c-0.593,0-1.478-0.353-2.198-1.358c-0.103-0.115-0.31-0.264-0.645-0.101c-0.517,0.268-0.829,0.639-0.838,1.001
	c0.021,0.893,1.335,1.66,2.396,1.66c1.663,0,4.454-1.657,4.488-3.423c0.018-0.982-0.607-1.66-1.847-2.642
	c-0.944-0.707-1.525-1.284-1.513-1.983c0.011-0.699,0.436-1.133,1.114-1.133c0.858,0,1.484,0.596,1.78,0.949
	c0.186,0.225,0.398,0.262,0.587,0.151c0.438-0.205,0.711-0.589,0.719-1.006C312.75,103.081,311.86,102.448,310.938,102.448z"/>
<path fill="#979190" d="M317.934,103.737l2.271-0.043l0.948-0.842h-2.966l0.855-3.146l0.032-0.116l-0.383-0.183l-2.019,1.511
	l-0.536,1.934h-1.329l-0.655,0.528l0.051,0.357h1.699l-1.527,6.08c-0.36,1.367-0.371,2.324-0.031,2.767
	c0.127,0.163,0.3,0.252,0.491,0.252c1.213,0,3.268-1.689,3.958-2.337l0.105-0.101L318.512,110l-0.103,0.083
	c-0.485,0.399-1.666,1.037-2.01,1.037c-0.046,0-0.062-0.015-0.071-0.028c-0.058-0.075-0.121-0.339,0.114-1.27L317.934,103.737z"/>
<path fill="#979190" d="M330.255,109.827l-0.131,0.121c-0.666,0.615-1.424,1.063-1.663,1.12c-0.01-0.063-0.012-0.232,0.088-0.646
	c0.611-2.846,1.426-5.941,1.883-7.409l0.014-0.04l-0.063-0.235h-0.11c-0.155,0-0.334-0.032-0.525-0.067
	c-0.127-0.023-0.258-0.048-0.38-0.063c-0.526-0.114-0.93-0.162-1.393-0.162c-1.624,0-3.556,0.949-4.751,1.888
	c-1.714,1.332-2.893,3.746-2.933,6.008c-0.017,0.971,0.207,1.742,0.628,2.17c0.206,0.21,0.45,0.324,0.685,0.324
	c0.584,0,1.368-0.378,2.338-1.121c0.822-0.635,1.876-1.517,2.929-2.818l-0.469,1.844c-0.237,1.004-0.242,1.605-0.014,1.895
	c0.109,0.137,0.262,0.202,0.47,0.202c0.609,0,2.321-0.95,3.617-2.442l0.066-0.078L330.255,109.827z M328.186,103.745
	c-0.201,0.829-0.689,2.64-0.882,3.288c-1.018,1.695-3.568,4.217-4.262,4.217c-0.068,0-0.125-0.026-0.179-0.08
	c-0.185-0.188-0.283-0.665-0.27-1.313c0.041-2.388,1.168-4.95,2.623-5.965c0.332-0.24,0.923-0.396,1.508-0.396
	C327.247,103.496,327.866,103.62,328.186,103.745z"/>
<path fill="#979190" d="M341.397,102.858c-0.266-0.268-0.597-0.41-0.957-0.41c-0.903,0-2.992,0.879-5.201,3.267
	c0.838-3.239,1.477-5.649,2.338-8.693c0.091-0.321,0.129-0.565,0.019-0.712c-0.134-0.174-0.371-0.132-1.058,0.063
	c-0.641,0.182-1.614,0.459-2.858,0.604l-0.125,0.015l-0.005,0.491l1.007,0.021c0.289,0.009,0.495,0.033,0.561,0.119
	c0.083,0.11,0.024,0.431-0.096,0.91l-0.654,2.566c-0.752,2.955-1.403,5.506-2.014,8.007c-0.31,1.354-0.263,2.218,0.152,2.799
	c0.367,0.532,1.158,0.933,1.839,0.933c0.652,0,2.009-0.165,3.757-1.27c2.228-1.337,3.879-4.15,3.927-6.692
	C342.042,103.999,341.816,103.284,341.397,102.858z M339.727,105.386c-0.05,2.75-1.511,5.278-2.833,6.042
	c-0.363,0.197-0.816,0.319-1.177,0.319c-0.259,0-0.745-0.06-1.069-0.46c-0.364-0.447-0.441-1.189-0.229-2.202
	c0.197-0.865,0.359-1.558,0.493-1.906c1.442-1.818,3.384-3.351,4.246-3.35c0.094,0,0.176,0.037,0.249,0.11
	C339.533,104.07,339.744,104.429,339.727,105.386z"/>
<path fill="#979190" d="M346.727,104.827c0.649-2.637,1.295-5.254,1.93-7.86c0.08-0.349,0.074-0.541-0.024-0.664
	c-0.041-0.05-0.117-0.112-0.252-0.112c-0.13,0-0.348,0.066-0.709,0.177c-0.621,0.187-1.659,0.505-2.938,0.651l-0.104,0.011
	l-0.109,0.535l0.891,0.028c0.457,0.011,0.76,0.044,0.859,0.177c0.106,0.138,0.046,0.478-0.075,0.944l-0.719,2.904
	c-0.695,2.818-1.394,5.648-2.108,8.496c-0.319,1.361-0.338,2.16-0.059,2.515c0.109,0.138,0.262,0.207,0.449,0.207
	c0.715,0,2.474-1.117,3.764-2.392l0.106-0.106l-0.426-0.379l-0.094,0.077c-0.748,0.611-1.639,1.042-1.836,1.046
	c-0.003-0.003-0.063-0.086,0.05-0.545C345.79,108.623,346.259,106.72,346.727,104.827z"/>
<g>
	<path fill="#979190" d="M353.017,104.355c0.279-0.969,0.316-1.488,0.127-1.739c-0.057-0.076-0.166-0.167-0.357-0.167
		c-0.652,0-2.425,1.028-3.647,2.114l-0.088,0.079l0.276,0.479l0.126-0.084c0.729-0.479,1.308-0.762,1.492-0.802
		c-0.001,0.087-0.042,0.279-0.118,0.574l-1.59,5.812c-0.294,1.098-0.326,1.721-0.099,2.017c0.102,0.132,0.252,0.198,0.448,0.198
		c0.726,0,2.682-1.301,3.563-2.235l0.082-0.089l-0.328-0.438l-0.116,0.091c-0.665,0.522-1.404,0.909-1.547,0.923
		c-0.01-0.019-0.03-0.11,0.085-0.524L353.017,104.355z"/>
	<path fill="#979190" d="M353.76,98.509c-0.17-0.172-0.404-0.263-0.68-0.263c-0.803,0-1.293,0.685-1.301,1.351
		c0.018,0.599,0.38,0.97,0.945,0.97c0.335,0,0.672-0.146,0.925-0.405c0.25-0.255,0.388-0.594,0.38-0.921
		C354.032,98.948,353.937,98.69,353.76,98.509z"/>
</g>
<path fill="#979190" d="M360.126,102.448c-0.866,0-1.972,0.544-2.685,1.082c-1.202,0.921-1.369,1.724-1.381,2.323
	c-0.021,1.128,0.93,1.956,1.989,2.774c1.121,0.885,1.335,1.324,1.324,1.781c-0.012,0.71-0.631,1.225-1.471,1.225
	c-0.592,0-1.478-0.353-2.193-1.358c-0.102-0.115-0.308-0.264-0.643-0.101c-0.518,0.269-0.83,0.64-0.836,0.999
	c0.01,0.895,1.324,1.662,2.393,1.662c1.666,0,4.458-1.657,4.49-3.423c0.015-0.98-0.608-1.659-1.847-2.643
	c-0.943-0.703-1.527-1.278-1.518-1.981c0.014-0.7,0.442-1.134,1.12-1.134c0.857,0,1.483,0.595,1.779,0.948
	c0.18,0.228,0.395,0.263,0.591,0.152c0.436-0.208,0.709-0.591,0.714-1.006C361.938,103.081,361.05,102.448,360.126,102.448z"/>
<path fill="#979190" d="M372.774,110.104l-0.14,0.108c-0.679,0.531-1.391,0.883-1.569,0.887c-0.002-0.003-0.053-0.081,0.06-0.493
	l1.326-5.004c0.394-1.486,0.421-2.425,0.082-2.865c-0.148-0.191-0.363-0.289-0.636-0.289c-0.454,0-1.022,0.186-1.688,0.553
	c-1.529,0.839-2.935,2.001-4.289,3.546l2.471-9.555c0.086-0.374,0.082-0.576-0.015-0.697c-0.038-0.047-0.11-0.104-0.233-0.104
	c-0.126,0-0.307,0.062-0.607,0.164c-0.598,0.202-1.598,0.542-3.016,0.662l-0.086,0.008l-0.217,0.519l0.854,0.026
	c0.479,0.012,0.738,0.036,0.827,0.153c0.107,0.142,0.046,0.51-0.1,1.104c-1.12,4.799-2.298,9.525-3.405,13.673l-0.019,0.074
	l0.233,0.266l0.089-0.03c0.564-0.176,1.159-0.311,1.77-0.399l0.098-0.015l0.021-0.097c0.229-1.008,0.705-3.025,0.975-4.063
	c1.468-2.156,4.085-4.341,4.901-4.341c0.067,0,0.094,0.025,0.111,0.047c0.066,0.086,0.141,0.366-0.103,1.271l-1.403,5.211
	c-0.308,1.171-0.332,1.839-0.078,2.168c0.113,0.15,0.282,0.225,0.502,0.225c0.641,0,2.182-0.861,3.456-2.147l0.07-0.071
	L372.774,110.104z"/>
<path fill="#979190" d="M381.732,109.863c-1.113,0.984-2.285,1.525-3.302,1.525c-0.447,0-0.813-0.14-1.085-0.415
	c-0.551-0.561-0.622-1.57-0.611-2.117l0.002-0.071c0.006-0.145,0.013-0.356,0.052-0.65c2.307-0.608,6.065-1.915,6.099-3.974
	c0.009-0.437-0.153-0.847-0.46-1.157c-0.247-0.252-0.702-0.555-1.466-0.555c-1.007,0-2.469,0.632-3.396,1.256
	c-1.821,1.28-3.02,3.536-3.055,5.745c-0.022,1.211,0.255,2.117,0.821,2.694c0.561,0.572,1.284,0.692,1.79,0.692
	c1.629,0,3.326-0.85,5.045-2.522l0.104-0.102l-0.437-0.439L381.732,109.863z M376.919,107.419c0.569-2.877,1.999-3.681,2.174-3.772
	c0.205-0.127,0.496-0.194,0.841-0.194c0.247,0,0.477,0.095,0.645,0.267c0.203,0.208,0.313,0.51,0.306,0.857
	C380.865,105.731,379.604,106.637,376.919,107.419z"/>
<path fill="#979190" d="M395.347,97.079c0.107-0.419,0.138-0.644,0.03-0.783c-0.131-0.169-0.385-0.112-1.035,0.076
	c-0.651,0.188-1.637,0.473-2.995,0.646l-0.11,0.015l-0.062,0.536h0.854c0.465,0,0.754,0.025,0.855,0.152
	c0.113,0.139,0.063,0.5-0.051,1.033l-0.929,3.853c-0.454-0.139-0.847-0.159-1.202-0.159c-1.079,0-3.159,0.929-4.23,1.729
	c-1.705,1.318-2.921,3.755-2.956,5.923c-0.023,1.33,0.362,2.007,0.691,2.341c0.251,0.255,0.559,0.396,0.869,0.396
	c0.544,0,1.267-0.34,2.209-1.038c0.856-0.659,1.954-1.563,3.055-2.819l-0.439,1.829c-0.229,0.976-0.231,1.56-0.011,1.836
	c0.103,0.128,0.248,0.192,0.438,0.192c0.73,0,2.507-1.039,3.615-2.333l0.075-0.088l-0.332-0.432l-0.113,0.1
	c-0.719,0.616-1.407,0.994-1.585,0.997c-0.001-0.001-0.071-0.089,0.054-0.568C392.949,106.339,394.029,101.946,395.347,97.079z
	 M391.561,103.933l-0.824,3.273c-0.988,1.529-3.444,4.043-4.347,4.043c-0.083,0-0.157-0.034-0.229-0.107
	c-0.228-0.231-0.352-0.766-0.336-1.464c0.029-1.98,1.105-4.795,2.665-5.83c0.35-0.251,0.863-0.396,1.408-0.396
	C390.501,103.452,391.233,103.668,391.561,103.933z"/>
<path fill="#979190" d="M408.539,98.265l0.056-0.258l-0.247,0.094c-1.341,0.517-2.94,0.914-4.625,1.15l-0.102,0.015l-0.097,0.52
	h0.938c0.726-0.024,1.124,0.038,1.267,0.215c0.142,0.177,0.098,0.546-0.019,1.084l-1.91,8.691c-0.434,1.96-0.51,2.022-2.72,2.236
	l-0.098,0.009l-0.153,0.548h7.158l0.146-0.543l-0.17-0.015c-1.084-0.092-1.757-0.168-1.979-0.468
	c-0.189-0.255-0.133-0.712,0.075-1.707L408.539,98.265z"/>
<path fill="#979190" d="M427.509,102.631c-0.953,0-2.413,0.343-4.109,1.911l1.11-3.839c0.385-0.045,1.854-0.211,2.795-0.211
	c1.023,0,2.785,0.23,2.805,0.233l0.104,0.014l1.063-2.273l-0.243,0.016c-0.021,0.003-2.14,0.15-3.321,0.213
	c-1.284,0.063-2.167,0.076-2.68,0.076c-0.578,0-0.842-0.017-0.845-0.017l-0.115-0.007l-1.923,7.089l-0.021,0.081l0.407,0.394
	l0.097-0.065c0.141-0.1,0.313-0.235,0.505-0.388c0.486-0.385,1.15-0.913,1.789-1.188c0.476-0.203,0.937-0.307,1.371-0.307
	c1.352,0,2.302,1.017,2.313,2.472c0.023,3.173-2.045,7.117-5.434,7.963c-0.274,0.069-0.542,0.104-0.791,0.104
	c-1.265,0-1.742-0.869-1.854-1.134c-0.094-0.229-0.319-0.314-0.573-0.205c-0.336,0.148-0.539,0.268-0.539,0.658
	c-0.004,0.33,0.256,0.711,0.663,0.973c0.454,0.291,1.08,0.446,1.809,0.446c0.248,0,0.508-0.019,0.772-0.055
	c3.766-0.513,8.299-5.047,8.221-9.607C430.849,104.038,429.431,102.631,427.509,102.631z"/>
<path fill="#979190" d="M438.598,98.265l0.058-0.258l-0.247,0.094c-1.34,0.516-2.939,0.913-4.627,1.15l-0.102,0.015l-0.101,0.52
	h0.945c0.725-0.024,1.118,0.038,1.263,0.216c0.142,0.177,0.097,0.546-0.021,1.083l-1.908,8.691c-0.432,1.96-0.508,2.022-2.718,2.236
	l-0.098,0.009l-0.155,0.548h7.159l0.15-0.543l-0.171-0.015c-1.083-0.091-1.757-0.167-1.979-0.467
	c-0.206-0.273-0.108-0.828,0.074-1.708L438.598,98.265z"/>
<path fill="#979190" d="M417.237,104.677l-0.003,0.005c-0.094-0.084-0.271-0.198-0.372-0.251l0.005-0.006l-0.136-0.082
	c-0.956-0.581-2.398-1.461-2.398-3.073c0-1.354,1.057-2.418,2.406-2.418c0.61,0,1.208,0.27,1.642,0.735
	c0.406,0.438,0.614,0.994,0.574,1.526c-0.069,0.852-0.276,1.85-1.842,2.89l-0.254,0.169l0.83,0.246l0.048-0.021
	c2.044-0.886,3.175-2.035,3.271-3.326c0.053-0.725-0.16-1.349-0.631-1.856c-0.652-0.701-1.793-1.121-3.05-1.121
	c-2.734,0-5.13,1.862-5.13,3.985c0,1.443,0.983,2.404,2.101,3.216c-1.003,0.414-1.955,0.964-2.496,1.336
	c-0.827,0.624-1.711,1.68-1.711,2.768c0,2.417,2.341,3.519,4.518,3.519c3.082,0,5.686-1.989,5.686-4.346
	C420.294,106.891,418.847,105.77,417.237,104.677z M417.9,109.198c0,1.755-1.205,2.982-2.93,2.982c-1.559,0-2.564-1.083-2.564-2.758
	c0-1.562,0.854-2.703,2.687-3.591C416.835,107.001,417.9,107.8,417.9,109.198z"/>
<path fill="#979190" d="M196.237,98.745c-1.442-0.673-3.27,0.007-3.937,1.444c-6.477,13.994-17.822,25.418-31.949,32.166
	c-7,3.358-14.47,5.486-22.201,6.323c-7.698,0.825-15.601,0.365-23.118-1.35c-3.214-0.725-6.354-1.694-9.407-2.867
	c6.982-3.636,13.27-8.331,18.688-13.99c5.676-5.929,10.221-12.702,13.509-20.131c0.154-0.345-0.002-0.75-0.346-0.904
	c-0.345-0.155-0.748-0.002-0.906,0.341c-3.306,7.237-7.83,13.812-13.446,19.54c-5.571,5.685-12.034,10.345-19.209,13.854
	c-0.225,0.11-0.454,0.214-0.68,0.322c-10.485-4.491-19.775-11.566-26.859-20.614c-4.871-6.182-8.581-13.07-11.028-20.476
	c-2.463-7.431-3.577-15.188-3.311-23.054c0.256-7.9,1.875-15.586,4.813-22.843c2.936-7.268,7.115-13.94,12.424-19.831
	c5.905-6.586,13.031-11.937,20.91-15.802c1.892,0.845,3.744,1.772,5.545,2.79c6.763,3.779,12.792,8.66,17.919,14.504
	c5.122,5.838,9.145,12.44,11.972,19.66c0.456,1.126,1.536,1.854,2.75,1.854c0.383,0,0.757-0.074,1.113-0.219
	c0.734-0.297,1.308-0.863,1.617-1.592c0.31-0.73,0.315-1.536,0.018-2.27c-3.153-7.783-7.609-14.909-13.246-21.182
	c-5.618-6.253-12.196-11.451-19.55-15.45c-0.549-0.299-1.108-0.577-1.664-0.861c4.297-1.59,8.759-2.772,13.332-3.483
	c3.616-0.575,7.326-0.867,11.027-0.867c12.293,0,24.318,3.14,34.777,9.083c13.999,7.87,24.866,20.384,30.599,35.236
	c0.135,0.354,0.531,0.528,0.883,0.396c0.353-0.134,0.531-0.528,0.4-0.882c-5.683-15.258-16.663-28.199-30.915-36.437
	c-10.961-6.398-23.617-9.78-36.601-9.78c-3.534,0-7.084,0.259-10.547,0.767c-5.608,0.805-11.069,2.288-16.282,4.361
	c-5.899-2.658-12.113-4.531-18.546-5.562c-8.207-1.311-16.7-1.251-24.806,0.172C43.491,3.961,28.396,12.468,17.476,25.062
	c-5.495,6.301-9.791,13.411-12.768,21.13c-2.99,7.731-4.57,15.87-4.698,24.188c-0.138,8.319,1.176,16.488,3.905,24.281
	c2.71,7.77,6.749,14.972,12.003,21.401c10.406,12.808,25.046,21.691,41.219,25.018c4.88,1.021,9.908,1.54,14.947,1.54
	c9.638,0,19.178-1.899,27.895-5.512c4.454,2.084,9.127,3.734,13.958,4.885c5.722,1.378,11.628,2.075,17.555,2.075
	c2.386,0,4.799-0.114,7.176-0.338c8.331-0.804,16.397-3.001,23.974-6.526c7.631-3.555,14.518-8.323,20.469-14.174
	c5.922-5.795,10.948-12.804,14.574-20.35C198.369,101.195,197.719,99.43,196.237,98.745z M72.946,140.287
	c-5.163,0-10.304-0.562-15.283-1.666c-15.531-3.384-29.503-12.08-39.345-24.49c-4.946-6.202-8.72-13.118-11.219-20.561
	C4.594,86.134,3.437,78.36,3.661,70.465c0.214-7.877,1.799-15.56,4.712-22.835c2.892-7.243,7.02-13.897,12.271-19.776
	C31.043,16.142,45.296,8.323,60.777,5.838c3.679-0.605,7.452-0.911,11.214-0.911c8.57,0,16.991,1.562,24.806,4.551
	c-7.391,3.831-14.118,8.932-19.803,15.124c-5.627,6.096-10.088,13.034-13.258,20.625c-3.182,7.597-4.981,15.664-5.35,23.981
	c-0.381,8.301,0.701,16.514,3.216,24.41c2.501,7.881,6.35,15.233,11.438,21.852c6.551,8.574,14.962,15.534,24.491,20.434
	C89.758,138.78,81.38,140.287,72.946,140.287z"/>
</svg>
